<mxfile host="65bd71144e">
    <diagram id="YVSN0doClCJFxjPsUJcO" name="Page-1">
        <mxGraphModel dx="632" dy="590" grid="1" gridSize="10" guides="1" tooltips="1" connect="1" arrows="1" fold="1" page="1" pageScale="1" pageWidth="850" pageHeight="1100" math="0" shadow="0">
            <root>
                <mxCell id="0"/>
                <mxCell id="1" parent="0"/>
                <mxCell id="2" value="Input&lt;br&gt;Layer" style="rounded=0;whiteSpace=wrap;html=1;" vertex="1" parent="1">
                    <mxGeometry x="40" y="40" width="40" height="240" as="geometry"/>
                </mxCell>
                <mxCell id="4" value="Hidden&lt;br&gt;Layer" style="rounded=0;whiteSpace=wrap;html=1;" vertex="1" parent="1">
                    <mxGeometry x="400" y="80" width="40" height="160" as="geometry"/>
                </mxCell>
                <mxCell id="10" value="Weight&lt;br&gt;Matrix 1" style="whiteSpace=wrap;html=1;aspect=fixed;" vertex="1" parent="1">
                    <mxGeometry x="120" y="100" width="120" height="120" as="geometry"/>
                </mxCell>
                <mxCell id="11" value="Distance&lt;br&gt;Matrix 1" style="whiteSpace=wrap;html=1;aspect=fixed;" vertex="1" parent="1">
                    <mxGeometry x="260" y="100" width="120" height="120" as="geometry"/>
                </mxCell>
                <mxCell id="12" value="Weight&lt;br&gt;Matrix 2" style="whiteSpace=wrap;html=1;aspect=fixed;" vertex="1" parent="1">
                    <mxGeometry x="480" y="120" width="80" height="80" as="geometry"/>
                </mxCell>
                <mxCell id="13" value="Distance Matrix 2" style="whiteSpace=wrap;html=1;aspect=fixed;" vertex="1" parent="1">
                    <mxGeometry x="580" y="120" width="80" height="80" as="geometry"/>
                </mxCell>
                <mxCell id="14" value="Output&lt;br&gt;Layer" style="rounded=0;whiteSpace=wrap;html=1;" vertex="1" parent="1">
                    <mxGeometry x="700" y="105" width="40" height="110" as="geometry"/>
                </mxCell>
            </root>
        </mxGraphModel>
    </diagram>
</mxfile>